<?xml version="1.0" ?><svg id="Layer_1_1_" style="enable-background:new 0 0 64 64;" version="1.1" viewBox="0 0 64 64" xml:space="preserve" xmlns="http://www.w3.org/2000/svg" xmlns:xlink="http://www.w3.org/1999/xlink"><rect height="37" style="fill:#BDD3F4;" width="48" x="8" y="24"/><circle cx="32" cy="43" r="16" style="fill:#AABEDB;"/><path d="M54,19v-0.069L32,3L3,24h5h48h5l-7-5.069V19z" style="fill:#523C00;"/><polygon points="36,50 37,50 37,47 34.714,43 37,47 41,47 37,39 32,39 27,39 23,47 27,47 29.286,43 27,47   27,50 28,50 32,50 " style="fill:#FFE5CF;"/><rect height="4" style="fill:#BDD3F4;" width="5" x="27" y="12"/><rect height="4" style="fill:#BDD3F4;" width="5" x="32" y="16"/><rect height="4" style="fill:#BDD3F4;" width="5" x="32" y="12"/><rect height="4" style="fill:#BDD3F4;" width="5" x="27" y="16"/><circle cx="32" cy="35" r="4" style="fill:#FFE5CF;"/><rect height="11" style="fill:#FFE5CF;" width="4" x="28" y="50"/><rect height="11" style="fill:#FFE5CF;" width="4" x="32" y="50"/><polygon points="46,6 46,13 54,19 54,6 " style="fill:#6E5000;"/><path d="M55,18.42V6c0-0.552-0.447-1-1-1h-8c-0.553,0-1,0.448-1,1v5.179L32.587,2.19c-0.352-0.253-0.822-0.253-1.174,0l-29,21  c-0.351,0.254-0.498,0.706-0.364,1.118C2.183,24.721,2.566,25,3,25h4v36c0,0.552,0.447,1,1,1h20h4h4h20c0.553,0,1-0.448,1-1V25h4  c0.434,0,0.817-0.279,0.951-0.692c0.134-0.412-0.014-0.864-0.364-1.118L55,18.42z M47,7h6v9.972l-6-4.345V7z M29,35  c0-1.654,1.346-3,3-3s3,1.346,3,3s-1.346,3-3,3S29,36.654,29,35z M36.382,40l3,6H37.58l-1.998-3.496l-1.736,0.992L36,47.265V49h-4  h-4v-1.735l2.154-3.769l-1.736-0.992L26.42,46h-1.802l3-6H36.382z M29,51h2v9h-2V51z M33,60v-9h2v9H33z M37,60v-9  c0.553,0,1-0.448,1-1v-2h3c0.347,0,0.668-0.18,0.851-0.474c0.183-0.295,0.199-0.663,0.044-0.973l-4-8C37.725,38.214,37.379,38,37,38  h-1.026C36.609,37.162,37,36.13,37,35c0-2.757-2.243-5-5-5s-5,2.243-5,5c0,1.13,0.391,2.162,1.026,3H27  c-0.379,0-0.725,0.214-0.895,0.553l-4,8c-0.155,0.31-0.139,0.678,0.044,0.973C22.332,47.82,22.653,48,23,48h3v2c0,0.552,0.447,1,1,1  v9H9V25h46v35H37z M56,23H8H6.086L32,4.235L57.914,23H56z"/><path d="M26,12v8c0,0.552,0.447,1,1,1h10c0.553,0,1-0.448,1-1v-8c0-0.552-0.447-1-1-1H27C26.447,11,26,11.448,26,12z M28,17h3v2h-3  V17z M33,19v-2h3v2H33z M36,15h-3v-2h3V15z M31,13v2h-3v-2H31z"/></svg>